<svg width="56" height="57" viewBox="0 0 56 57" fill="none" xmlns="http://www.w3.org/2000/svg">
<g id="tabler-icon-brand-discord">
<path id="Vector" d="M36.1677 40.1668C36.1677 42.5002 39.6677 47.1668 40.8344 47.1668C44.3344 47.1668 47.4447 43.2772 49.001 40.1668C50.5574 36.2772 50.1677 26.5565 45.501 13.3335C42.1014 10.9652 38.501 10.2068 35.001 9.8335L32.733 14.3205C29.6038 13.7803 26.4052 13.7803 23.276 14.3205L21.001 9.8335C17.501 10.2068 13.9007 10.9652 10.501 13.3335C5.83435 26.5565 5.44469 36.2772 7.00102 40.1668C8.55735 43.2772 11.6677 47.1668 15.1677 47.1668C16.3344 47.1668 19.8344 42.5002 19.8344 40.1668M16.3333 39.0002C24.5 41.3335 31.5 41.3335 39.6667 39.0002M18.6667 28.5002C18.6667 29.119 18.9125 29.7125 19.3501 30.1501C19.7877 30.5877 20.3812 30.8335 21 30.8335C21.6188 30.8335 22.2123 30.5877 22.6499 30.1501C23.0875 29.7125 23.3333 29.119 23.3333 28.5002C23.3333 27.8813 23.0875 27.2878 22.6499 26.8502C22.2123 26.4127 21.6188 26.1668 21 26.1668C20.3812 26.1668 19.7877 26.4127 19.3501 26.8502C18.9125 27.2878 18.6667 27.8813 18.6667 28.5002ZM32.6667 28.5002C32.6667 29.119 32.9125 29.7125 33.3501 30.1501C33.7877 30.5877 34.3812 30.8335 35 30.8335C35.6188 30.8335 36.2123 30.5877 36.6499 30.1501C37.0875 29.7125 37.3333 29.119 37.3333 28.5002C37.3333 27.8813 37.0875 27.2878 36.6499 26.8502C36.2123 26.4127 35.6188 26.1668 35 26.1668C34.3812 26.1668 33.7877 26.4127 33.3501 26.8502C32.9125 27.2878 32.6667 27.8813 32.6667 28.5002Z" stroke="#FFC000" stroke-width="3.5" stroke-linecap="round" stroke-linejoin="round"/>
</g>
</svg>
