<svg width="117" height="132" viewBox="0 0 117 132" fill="none" xmlns="http://www.w3.org/2000/svg">
<path id="Vector" d="M54.46 64.8177C55.2015 69.6574 56.0122 70.1295 56.8438 71.428C57.0725 71.8376 57.1556 72.2265 56.8092 72.5042C56.6151 72.6639 55.9568 72.9 54.8411 72.2265C53.5037 71.421 53.3027 70.5461 51.0852 72.3237C51.0852 72.3237 50.7872 72.5528 50.5031 72.6153C50.2606 72.6709 49.9972 72.5736 50.0388 72.2195C50.1428 71.3655 50.7526 70.8864 51.203 69.3727C51.598 68.1715 52.0276 66.3939 52.4157 64.5886C52.589 63.7693 52.8384 63.4082 53.4344 63.3318C53.8294 63.2971 54.2382 63.6373 54.453 64.8108L54.46 64.8177ZM67.5364 93.9736C67.7304 93.6542 67.6057 93.182 67.1345 92.9945C66.982 92.932 66.691 92.8626 66.4623 92.7793C66.3445 92.7376 66.192 92.6404 66.1089 92.5293C66.0396 92.4321 65.7208 91.9669 65.6376 91.8419C65.5961 91.7933 65.5476 91.7864 65.4713 91.8141C65.2842 91.8766 65.1179 92.0711 65.0555 92.3696C64.9516 92.8348 65.0348 93.5361 65.5337 94.0291C65.7762 94.2722 66.1712 94.4249 66.7256 94.4041C67.176 94.3902 67.3978 94.2166 67.5433 93.9805L67.5364 93.9736ZM90.6193 79.7255C90.5847 79.788 90.3491 80.2462 89.6007 80.7739C87.8405 81.8433 86.0873 81.9682 84.244 81.142C83.3085 80.7253 82.6432 80.1699 82.0542 79.6838C81.3959 79.1353 80.8761 78.7048 80.2247 78.6631C80.1901 78.6631 80.1693 78.6631 80.1485 78.677C80.1277 78.6909 80.1208 78.7256 80.1208 78.7812C80.1208 78.9825 80.2663 79.6838 80.7375 80.1699C81.0286 80.4684 81.382 80.7601 81.7631 81.0656C82.1928 81.4128 82.6363 81.7738 82.9966 82.1696C83.3986 82.6001 83.6342 83.2736 83.5857 83.8499C83.5371 84.4471 83.4124 85.0234 83.2738 85.8358C83.1976 86.2871 82.3522 90.6476 82.5116 92.0224C82.5531 92.4043 82.6501 92.689 82.7472 92.9598C82.9135 93.432 83.0729 93.8694 82.858 94.7443C82.858 94.9109 82.8719 94.9873 82.9551 95.1679C83.5372 96.1261 83.6827 97.2301 83.3293 97.973C83.1214 98.3341 82.567 99.0354 82.1581 98.9174C82.0819 98.8965 82.0195 98.8202 81.971 98.716C81.9156 98.591 81.7077 97.8133 81.6245 97.6189C81.6038 97.5564 81.5206 97.487 81.4444 97.4939C81.3612 97.4939 81.3196 97.5911 81.2989 97.6675C81.2573 97.855 81.2296 98.6535 81.2018 98.8826C81.2018 98.9174 81.1741 98.9521 81.1395 98.9729C81.1117 98.9937 81.0702 99.0007 81.0286 99.0007C81.0009 99.0007 80.9731 99.0007 80.9454 98.9868C80.4673 98.841 80.0931 98.6882 79.809 98.5146C78.7972 97.9036 79.0883 97.2856 79.4555 96.5079C79.7189 95.9594 80.0099 95.3345 79.9822 94.536C79.5318 93.6125 79.7743 92.939 79.9683 92.3974C80.0515 92.1613 80.1277 91.953 80.1277 91.7655C80.1277 89.7797 78.7002 87.4397 78.0835 86.5232C77.8063 86.1482 77.3489 86.0996 76.9331 86.2663C74.1889 87.5994 72.6713 90.1408 72.8654 93.0709C72.9347 93.6542 72.8515 93.8903 72.5882 94.2652C72.1724 94.8554 71.5487 95.404 71.223 95.7025C70.6271 96.2511 70.1766 96.1955 69.3658 96.1261C68.4095 96.0289 67.4324 95.9177 66.0118 96.0983C64.91 96.2372 64.023 96.0775 63.434 94.9318C63.0806 94.2513 62.8796 93.7444 62.5747 93.057C62.4292 92.7307 62.1797 92.0849 62.0065 91.7169C61.9094 91.5086 61.6669 91.1962 61.2511 91.6614C59.8444 93.182 60.0107 95.6192 60.0869 96.3205C60.1285 96.7093 60.0523 96.8551 59.983 96.9662C59.983 96.9662 59.0544 98.841 56.428 99.0632C56.1023 99.0632 55.7766 99.0632 55.6588 98.7438C55.5895 98.5563 56.1647 97.6884 56.2825 97.5217C56.3657 97.3967 56.3379 97.2787 56.2756 97.2231C56.2132 97.1676 56.0954 97.1468 55.9568 97.2717C55.8598 97.362 55.0282 98.1952 54.9381 98.2647C54.848 98.3341 54.751 98.3619 54.654 98.348C54.557 98.3341 54.4669 98.2716 54.4045 98.1813C54.2937 98.0216 54.2729 97.73 54.2867 97.5148C54.3283 96.8204 54.6124 95.1331 56.1439 94.2374C56.4003 94.0916 56.823 93.925 57.0101 93.4806C57.3913 92.5779 58.209 91.2517 58.2991 91.099C58.4307 90.8559 58.3822 90.6615 58.1397 90.5226C57.5714 90.1824 56.0192 90.3213 55.5618 91.0434C55.3262 91.4184 55.2569 91.7794 54.9381 92.4182C54.6263 93.0154 54.1274 93.9875 53.0325 95.0151C52.187 95.7581 51.8336 96.4316 51.5703 97.2162C51.501 97.4176 51.4386 97.6259 51.3762 97.8203C51.1198 98.6535 50.8773 99.4381 50.2883 99.945C50.1081 100.126 50.0249 100.389 50.0249 100.563C50.0249 101.243 49.824 101.764 49.4013 102.16C48.5697 102.945 47.0798 103.326 46.0819 103.007C46.0473 102.993 45.9364 102.952 45.8879 102.847C45.8602 102.778 45.8671 102.702 45.9018 102.618C46.0611 102.243 46.2621 101.931 46.4215 101.674C46.5462 101.473 46.6502 101.313 46.6779 101.209C46.6917 101.146 46.671 101.084 46.6086 101.042C46.5462 101 46.4423 100.98 46.3314 101.056C45.9988 101.306 45.7285 101.611 45.5137 101.861C45.3751 102.021 45.2711 102.146 45.1811 102.216C45.091 102.285 45.0009 102.306 44.9108 102.299C44.7999 102.285 44.689 102.209 44.592 102.077C44.4396 101.868 44.3841 101.653 44.3564 101.493C44.2802 101.077 44.2456 99.6256 45.0702 98.4521C45.3751 98.0217 45.9295 97.6675 46.5185 97.5148C47.059 97.3551 47.2253 97.0496 47.3639 96.8065C47.4194 96.7024 47.4679 96.6191 47.5372 96.5496C47.6688 96.4246 48.0777 96.133 48.1193 96.1052C49.6854 95.1748 50.3437 93.0709 50.5585 92.3766C50.7248 91.9391 50.6348 91.4739 50.2952 91.0365C49.7893 90.4463 49.9002 89.5436 50.0111 88.5854C50.115 87.7383 50.219 86.8634 49.8656 86.2177C49.7893 86.0719 49.6854 85.9885 49.5607 85.9677C49.2904 85.926 48.8885 86.1552 48.4727 86.5787C46.8303 88.3146 46.0057 90.3977 45.2088 92.4113C44.4327 94.3624 43.6357 96.383 42.0904 98.1119C41.5222 98.8132 41.5222 99.702 41.5222 100.563C41.5222 101.5 41.5222 102.465 40.7945 103.202C40.6074 103.389 40.5312 103.465 40.5312 103.736C40.5104 104.375 40.3233 105.229 40.0461 105.972C40.0253 106.014 40.0115 106.048 39.9976 106.076C39.9491 106.187 39.9214 106.257 39.7759 106.409C39.4017 106.729 38.681 107.097 37.302 107.097C37.198 107.097 37.0941 107.097 36.9832 107.097C36.7337 107.083 36.5882 107.027 36.5258 106.93C36.4635 106.833 36.505 106.715 36.5397 106.618V106.604C36.8099 105.93 37.2534 105.132 37.2881 105.069C37.3366 104.958 37.3227 104.854 37.2396 104.792C37.1703 104.743 37.0525 104.722 36.9485 104.812C36.6575 105.069 35.916 105.93 35.916 105.93C35.7982 106.069 35.6804 106.132 35.5626 106.118C35.3893 106.097 35.2785 105.916 35.2369 105.84C34.9736 105.34 34.8904 104.306 35.1815 103.729C35.521 103.042 35.8328 102.806 36.0892 102.618C36.2209 102.521 36.3249 102.452 36.3872 102.347C36.4288 102.278 36.4565 102.181 36.4912 102.063C36.7476 101.16 37.4475 100.459 38.1197 99.7922C38.8819 99.0354 39.6026 98.3271 39.6165 97.3551C39.6165 96.2024 39.8382 94.9526 40.157 94.0708C40.3995 93.3834 41.0371 92.689 41.2866 91.9808C41.6123 91.0573 41.5984 89.9949 41.5568 88.9256C41.5291 88.2799 41.5083 87.6133 41.5568 86.9051C41.6261 85.7524 42.0488 84.6762 42.4923 83.5375C43.0606 82.0863 43.6496 80.5934 43.4902 78.8714C43.2823 76.5731 43.809 75.2052 44.793 73.6152C45.0563 73.1847 46.3037 71.671 46.4631 71.4349C47.8975 69.2685 48.3341 67.1369 48.7152 65.2482C49.2557 62.5889 49.72 60.2975 52.6236 58.5894C53.5314 58.0478 54.46 57.534 55.3539 57.041C56.234 56.555 57.0656 56.0967 57.7031 55.7009C58.7564 55.0413 59.5464 54.4997 60.2463 54.0275C60.7314 53.7012 61.1472 53.4165 61.556 53.1526C63.2538 52.0764 64.0438 51.6667 66.5801 52.2847C67.4324 52.493 68.4373 52.8332 69.7123 53.2637C71.1399 53.7498 74.0919 54.7219 75.7481 55.1593C76.2679 55.2982 76.545 55.1871 76.8014 54.8399C76.9678 54.5969 77.1064 54.215 77.1757 53.965C77.4113 53.0832 77.3558 51.6875 76.4203 50.6391C75.6095 49.7295 73.7177 49.1948 71.4794 49.2226C71.126 49.2226 70.7656 49.2365 70.3914 49.2434C66.8573 49.3059 62.8588 49.3754 58.5693 48.8754C54.5223 48.4033 53.8086 47.1257 53.9195 46.1397C54.0026 45.4037 54.4669 44.7024 55.2915 44.0566C56.04 43.4734 56.8923 43.1054 57.218 42.9734C58.8673 42.3138 61.7293 41.6958 66.0118 42.4527C68.6729 42.9248 71.0013 43.8205 71.715 44.4107C71.7358 44.4316 71.7566 44.4732 71.7427 44.5149C71.7427 44.5288 71.722 44.5704 71.6596 44.5774C71.6457 44.5774 71.3755 44.5843 71.1745 44.5774C70.9735 44.5774 70.6964 44.5566 70.3429 44.5288C69.3104 44.4593 67.7512 44.3483 65.7208 44.4385C65.305 44.4594 64.9447 44.5982 64.9239 44.744C64.9239 44.8065 64.9793 44.9732 65.6654 45.1468C66.289 45.2926 67.2731 45.4662 68.3749 45.4662C68.5343 45.4662 68.5828 45.4662 68.6174 45.5148C68.6798 45.5981 68.659 45.6814 68.6105 45.73C68.5135 45.8133 68.2917 45.9591 67.9799 46.0841C67.2453 46.3827 66.4761 46.5424 65.6931 46.5771C64.8615 46.6118 63.9953 46.4938 63.1152 46.2438C62.0827 45.9453 61.1888 45.487 60.4057 45.0843C59.5256 44.6329 58.7703 44.2441 58.0773 44.2163C57.6892 44.1538 57.1487 44.3482 56.6914 44.7024C56.1578 45.112 55.8251 45.6675 55.7628 46.2299C55.7351 46.5077 55.7974 46.7368 55.9637 46.9382C56.4835 47.5631 57.9803 47.9728 60.5443 48.1811C63.1984 48.4033 66.7187 48.2019 69.8301 48.0214L70.53 47.9797C73.8286 47.7922 76.3094 48.2991 77.7023 49.4517C79.1991 50.6877 79.7466 52.1667 79.4625 54.2428C79.3724 54.8885 79.2199 55.4509 78.9358 56.187C78.9358 56.187 78.8457 56.4369 78.7903 56.555C78.721 56.7008 78.6863 56.8952 78.7764 57.0549C78.9081 57.284 79.7327 58.8533 79.8367 59.0407C81.0494 61.2349 82.9412 65.0538 83.4679 67.366C83.7035 68.4631 83.5302 69.0325 83.2392 69.7615C83.0659 70.192 82.962 70.5114 83.0521 71.0808C83.1075 71.5252 83.2877 71.9835 83.4401 72.3862C83.7035 73.0736 83.9529 73.5735 83.7797 74.747C83.7658 74.8858 83.7381 74.9831 83.655 75.0108C83.5579 75.0455 83.4678 74.9761 83.3085 74.8858C82.6016 74.4623 81.576 74.3651 80.5851 74.4553C79.9822 74.5109 79.9683 74.3998 79.5664 74.2748C77.1826 73.5457 74.7988 73.0805 72.1447 73.511C71.5972 73.6082 71.5349 73.1847 71.3477 72.7264C70.828 71.3377 70.5716 71.0044 70.135 70.3448C69.74 69.7407 69.4351 69.6852 69.1926 69.6365C68.7214 69.5393 68.1531 69.5046 67.9314 68.8103C67.8829 68.6506 67.9522 68.5533 68.1116 68.3867C68.5135 67.9493 69.4143 67.4216 67.5918 66.4078C66.9404 66.0468 67.3146 65.6787 67.474 65.5954C67.9175 65.3663 68.9708 65.1927 70.0103 66.4147C70.53 67.0258 72.2209 69.6713 73.2811 71.8168C73.392 72.0459 73.5168 72.039 73.7593 72.0529C74.085 72.0737 74.3206 72.0668 74.4245 72.0737C74.5839 72.0876 74.5839 71.9626 74.5493 71.8376C72.4634 64.8663 71.2438 60.8113 68.4373 56.6313C68.3472 56.4994 68.4373 56.3675 68.6313 56.3814C71.223 56.6313 72.1377 60.5614 73.7524 63.1791C75.2007 65.526 76.7945 65.6301 77.0093 62.5819C77.0786 61.5335 76.9816 59.1102 74.9859 57.5132C72.2555 55.326 67.7651 53.9859 66.5939 53.6456C65.3466 53.2846 64.1408 52.7291 62.2698 54.1247C59.491 56.2078 54.5916 58.7213 53.573 59.4018C51.9168 60.5128 51.0575 60.9433 50.413 63.554C49.2211 68.6158 49.1172 70.199 46.2621 73.7193C44.1 76.3857 44.8554 77.9271 44.7237 80.0032C44.6198 81.5794 44.6821 81.8502 44.0654 84.0582C43.712 85.3358 44.793 85.065 44.987 84.461C45.3612 83.6139 46.2898 80.7253 48.5905 80.4059C49.6577 80.2532 50.9743 79.9338 50.8219 79.2464C50.6486 78.5381 50.6001 78.1493 50.5724 77.823C50.5585 77.6424 50.614 77.33 51.1129 77.4758C51.3832 77.5383 51.7435 77.6771 52.2009 77.8021C55.6103 78.6076 57.3497 77.9688 59.3801 77.0592C59.4355 77.0314 60.1909 76.6912 60.2394 76.6703C60.6067 76.469 61.064 76.837 60.8631 77.2744C60.7522 77.5035 60.6067 77.6146 60.2948 77.9132C60.1285 78.0729 59.9622 78.1979 59.6573 78.5242C57.9387 80.4198 59.2415 82.8292 59.6434 83.7249C61.5352 87.9535 63.0459 91.6336 63.9676 93.55C64.4388 94.5221 64.6536 95.1887 65.8663 95.147C66.4484 95.1262 66.7048 95.1331 67.0929 95.1192C67.7166 95.0845 68.1947 94.8485 68.4165 94.4527C68.763 93.8278 68.763 92.7723 67.9868 92.4391C67.8136 92.3696 67.8205 92.2516 67.8759 92.1266C68.2155 91.2934 68.4026 90.7865 68.86 89.4325V89.4186C69.0956 88.4188 69.1094 87.7869 68.6729 87.037C68.5828 86.8842 68.4927 86.7315 68.3749 86.5926L67.8274 85.8635C67.675 85.683 67.6473 85.5511 67.869 85.4747L68.6451 85.2803C68.8323 85.2109 68.8184 84.9262 68.6313 84.8776L68.2294 84.7526C67.8552 84.5998 67.6195 84.2943 67.4532 84.0652C67.4255 84.0235 67.377 83.9471 67.3285 83.8638C67.2453 83.7111 67.183 83.5444 67.1483 83.3708L67.0998 83.1417C67.0998 83.0236 66.9127 83.0237 66.8365 83.107C66.2267 83.718 66.0396 84.6623 66.4831 85.4122L67.6473 87.162C67.8344 87.4328 67.8967 87.6272 67.9314 87.9952C67.9522 88.2105 67.9383 88.4326 67.9037 88.6479L67.869 88.8562C67.8482 88.9951 67.8067 89.1339 67.7651 89.2659C67.5225 89.9533 67.0652 91.2864 67.0513 91.3142C66.9404 91.5919 66.6771 91.5781 66.4761 91.4184C66.2128 91.2101 65.9564 90.7448 65.8317 90.2866C65.8317 90.2866 65.3397 89.1825 65.3535 87.287C65.3397 86.9815 65.0971 86.6759 64.6675 86.9953L63.4686 87.8286C63.2677 87.9605 62.838 87.9535 63.0251 87.3078C63.0251 87.3078 63.8567 83.468 64.8754 81.0795C65.5545 79.3644 64.9655 78.302 64.127 77.2536C64.127 77.2536 64.1339 77.2536 64.1408 77.2536C64.023 77.1078 63.9052 76.962 63.7805 76.8161C62.1173 74.6914 61.7431 71.8238 65.6169 73.393C66.6217 73.9068 67.3562 73.1361 68.4788 73.1291C69.747 73.1291 69.7123 73.9415 69.7123 73.9415C69.7193 74.0457 69.6985 74.0318 69.6153 74.0318C67.4809 74.1915 64.9031 75.9343 66.9058 78.7881C68.86 81.5794 74.279 82.5029 76.6975 79.8505C76.7321 79.8157 76.7391 79.7324 76.6906 79.6977C76.6629 79.6769 76.6213 79.656 76.5658 79.6769C76.0392 79.8782 75.5541 80.031 75.0621 80.1074C73.9048 80.2948 71.4656 80.156 70.3083 78.8367C69.65 78.0799 69.6638 77.205 70.7795 77.0731C71.4032 77.0244 71.7081 77.1355 71.9783 77.1425C72.6783 77.1355 72.8168 76.4342 72.6783 76.1148C72.5604 75.8093 72.2833 75.4483 71.8883 75.1289C71.6665 74.9692 71.6526 74.8025 71.7358 74.7053C71.8051 74.6567 71.916 74.615 72.0546 74.5942C76.0322 74.0248 79.213 75.2191 79.9891 75.7191C82.9135 75.5594 83.9183 77.0383 84.5489 77.8299C84.8399 78.191 85.5745 79.2186 86.3645 79.6838C87.4663 80.3365 88.4573 80.4129 89.5591 79.9199C89.7115 79.8643 90.2521 79.6005 90.3352 79.5519C90.55 79.4269 90.6193 79.663 90.5708 79.7394L90.6193 79.7255ZM79.2546 85.0998C79.1021 85.322 79.116 85.558 79.2962 85.9191L79.4001 86.0927C79.7604 86.7106 80.2525 87.5578 80.7029 88.1966C80.8553 88.4118 81.0217 88.4951 81.1602 88.4674C81.3335 88.4257 81.382 88.3077 81.4513 87.8424C81.5899 86.8773 81.5275 85.0373 81.2226 83.9402C81.0702 83.3986 80.8207 83.0098 80.6059 82.9959C80.4534 82.9889 80.3218 83.1972 80.2594 83.3292C80.0792 83.7111 79.4555 84.7943 79.2615 85.0998H79.2546ZM58.4931 2.27748C68.6798 2.27748 78.4577 3.10375 87.5564 4.73548C95.9414 6.24222 103.384 8.35305 109.683 11.0194C111.561 11.8942 112.704 12.8247 113.39 14.0398C114.118 15.3243 114.451 17.1574 114.451 19.8029C114.451 32.5304 113.217 44.501 110.785 55.3815C108.463 65.7551 104.978 75.5107 100.411 84.3776C91.9776 100.75 79.7258 114.728 62.942 127.108C60.9393 128.497 59.8167 128.962 58.4931 128.962C57.1695 128.962 56.0469 128.497 54.0442 127.108C37.2673 114.721 25.0086 100.743 16.5751 84.3776C12.0084 75.5107 8.51583 65.7551 6.2013 55.3815C3.76896 44.4941 2.53547 32.5234 2.53547 19.8029C2.53547 17.1574 2.87502 15.3313 3.59572 14.0398C4.28176 12.8247 5.42517 11.8873 7.30312 11.0194C13.6023 8.35305 21.0448 6.24222 29.4298 4.73548C38.5285 3.10375 48.3064 2.27748 58.4931 2.27748ZM58.4931 0C36.9832 0 18.7996 3.68007 6.38147 8.93631C1.83556 11.0402 0.262512 13.8454 0.262512 19.8029C0.262512 72.7195 20.8993 105.486 52.7275 128.962C55.0005 130.538 56.5735 131.239 58.5 131.239C60.4265 131.239 61.9995 130.538 64.2725 128.962C96.1008 105.486 116.738 72.7195 116.738 19.8029C116.738 13.8454 115.164 11.0402 110.619 8.93631C98.2005 3.68007 80.0168 0 58.5069 0H58.4931ZM11.1838 31.1417V43.3762C12.1262 43.0706 13.5537 42.6263 14.7318 42.293L14.6348 44.2233C13.3666 44.5982 11.1145 45.2787 9.16722 45.9175V31.7805L11.1838 31.1486V31.1417ZM18.7233 37.9186L20.1994 31.1695L21.7239 37.1687L18.7164 37.9186H18.7233ZM22.1535 38.8837L22.9782 42.1055L25.071 41.6333L21.5507 28.4337L19.0144 29.0656L15.5149 44.0011L17.5314 43.4387L18.3075 39.8419L22.1605 38.8768L22.1535 38.8837ZM28.0438 41.0431V31.3986C28.0438 31.0236 28.0438 30.5515 28.023 30.1279C28.1201 30.6001 28.2101 30.975 28.3072 31.3014L31.1276 40.7098L31.2246 40.689L34.1073 30.3085C34.2251 29.8849 34.343 29.3919 34.433 28.9892C34.4123 29.4127 34.3845 29.9057 34.3845 30.3085V39.9044L36.2625 39.6197V25.6494L33.7054 26.0243L31.5711 33.8566C31.474 34.2107 31.3632 34.6829 31.2454 35.1759C31.1761 34.7037 31.079 34.2801 30.989 33.9746L28.8754 26.8436L26.2213 27.3644V41.3834L28.0508 41.0293L28.0438 41.0431ZM43.4694 38.7865C45.7216 38.5296 46.9897 37.5367 46.9897 35.3981V33.565C46.9897 32.3151 46.47 31.5861 45.3682 31.3778C46.3314 30.975 46.7541 30.246 46.7541 29.1905V27.7532C46.7541 25.6355 45.4652 24.5315 42.8319 24.837L38.8196 25.3091V39.3073L43.4694 38.7865ZM40.9123 26.927L42.8873 26.7187C44.2248 26.5798 44.6475 27.0242 44.6475 27.9893V29.26C44.6475 30.246 44.2248 30.7667 42.8873 30.8848L40.9123 31.0722V26.9339V26.927ZM40.9123 32.7179L43.1437 32.5096C44.4604 32.3915 44.8831 32.7942 44.8831 33.8288V35.405C44.8831 36.3701 44.4119 36.8631 43.1922 36.9812L40.9123 37.1895V32.7179ZM53.0948 38.4324C55.7212 38.4324 57.5299 36.7382 57.5299 33.8427V28.3643C57.5299 25.448 55.7697 23.9204 53.2819 23.9204C50.7942 23.9204 48.8885 25.7327 48.8885 28.649V34.1274C48.8885 36.9534 50.5793 38.4324 53.0879 38.4324H53.0948ZM50.9813 34.0788V28.3851C50.9813 26.7603 51.9653 25.823 53.2334 25.823C54.5016 25.823 55.4371 26.6214 55.4371 28.2462V33.9399C55.4371 35.6341 54.5223 36.5299 53.1572 36.5299C51.889 36.5299 50.9743 35.7799 50.9743 34.0857L50.9813 34.0788ZM61.8263 38.106V31.8499L63.233 31.8985L65.6307 38.2518L67.8829 38.3699L65.2981 31.6624C66.6355 31.3569 67.4602 30.4404 67.4602 28.767V27.5172C67.4602 25.3786 66.289 24.2954 63.8913 24.1773C62.8796 24.1287 61.0502 24.1079 59.7335 24.1079V38.0783L61.8263 38.0991V38.106ZM61.8263 25.9618L63.8013 26.0312C64.8823 26.0799 65.3535 26.5728 65.3535 27.5102V28.7601C65.3535 29.7044 64.8823 30.1696 63.732 30.1279L61.8332 30.0585V25.9618H61.8263ZM74.0157 39.0434C76.6005 39.0434 77.9587 37.4672 77.9587 34.9745V31.2319L73.8702 30.7598V32.572L75.8659 32.7803V34.919C75.8659 36.4743 75.0413 37.127 73.8494 37.127C72.3733 37.127 71.2923 36.1618 71.2923 34.3982V28.8225C71.2923 27.295 72.1585 26.4479 73.3574 26.4479C74.9512 26.4479 75.8451 27.6699 75.8729 29.1558L77.9656 29.4127C77.8963 26.6145 76.1362 24.5176 73.1772 24.5176C70.9943 24.5176 69.2342 25.9549 69.2342 28.7739V34.2107C69.2342 37.4603 71.4656 39.0365 74.0226 39.0365L74.0157 39.0434ZM82.2066 39.8419V33.5858L86.0596 34.2177V40.4738L88.1246 40.8487V26.8506L86.0596 26.4965V32.4471L82.2066 31.8152V25.8646L80.1416 25.5383V39.5572L82.2066 39.8419ZM90.7094 27.3783L91.742 27.5866L92.7745 27.7949V41.8139L90.7094 41.3417V27.3714V27.3783ZM97.0432 42.8068V33.8427C97.0432 33.3011 97.0224 32.7387 97.0224 32.0999C97.161 32.7803 97.3065 33.2317 97.4659 33.6969L101.104 43.883L103.266 44.4941V30.5237L101.554 30.0307V40.1197C101.416 39.4878 101.298 39.0642 101.132 38.5643L97.7778 28.9892L95.3108 28.399V42.3693L97.0501 42.7929L97.0432 42.8068ZM105.782 45.2787V31.2597L106.8 31.5791L107.819 31.8985V45.9175L105.775 45.2856L105.782 45.2787ZM70.8072 6.65189C68.4858 6.65189 66.7672 8.22807 66.7672 11.0263V16.3867C66.7672 19.4002 68.6244 21.2125 71.6249 21.2125C74.0919 21.2125 75.665 19.7543 75.665 17.1435V11.5679C75.665 8.85993 73.9048 6.65189 70.8072 6.65189ZM73.5791 11.4985V17.0255C73.5791 18.5045 72.8307 19.2127 71.5834 19.2127C69.8717 19.2127 68.8392 18.2684 68.8392 16.4145V11.0749C68.8392 9.49874 69.6361 8.63079 71.0428 8.63079C72.5951 8.63079 73.5791 9.76259 73.5791 11.4985ZM48.5558 6.50608C45.7354 6.50608 43.7397 8.43638 43.7397 11.4707V16.8311C43.7397 19.3238 45.3612 21.018 47.849 21.018C50.6417 21.018 52.6652 19.0669 52.6652 16.2201V10.9499C52.6652 8.26973 51.0228 6.50608 48.5558 6.50608ZM50.5724 16.2687C50.5724 18.0809 49.4706 19.0461 47.9876 19.0183C46.671 18.9975 45.8047 18.1226 45.8047 16.595V11.3041C45.8047 9.44319 46.9343 8.45721 48.4103 8.47804C49.7478 8.49887 50.5724 9.42236 50.5724 10.9985V16.2687ZM101.658 13.1163V27.0867L99.5933 26.427V12.4567L100.626 12.783L101.658 13.1094V13.1163ZM92.033 10.4153L94.1258 10.936V23.0039C95.2068 23.2886 96.9462 23.7538 98.0965 24.1079V26.0382C96.3849 25.4966 93.7031 24.8161 92.0399 24.3648V10.4153H92.033ZM89.5452 9.82508V23.7954L87.4525 23.3511V9.40152L88.4988 9.60983L89.5452 9.81814V9.82508ZM77.6677 21.6846V7.71425L81.8671 8.32528C84.2163 8.6794 85.131 9.97089 85.131 12.0887V13.3385C85.131 14.4217 84.6598 15.0813 83.6965 15.241C84.8954 15.6854 85.3666 16.5117 85.3666 18.067V19.5043C85.3666 21.7402 84.0777 22.6567 81.5414 22.2818L77.6677 21.6916V21.6846ZM81.5414 14.2481C82.5947 14.4147 83.0451 14.012 83.0451 13.0746V11.6859C83.0451 10.8874 82.6224 10.2972 81.5414 10.1098L79.7604 9.82508V13.9912L81.5414 14.2481ZM81.7008 20.4834C82.8026 20.65 83.2738 20.2265 83.2738 19.2613V17.7337C83.2738 16.7894 82.8026 16.1576 81.7008 15.9909L79.7535 15.7062V20.1779L81.7008 20.4834ZM56.4904 9.51957C56.5112 9.94312 56.5112 10.4153 56.5112 10.8388V20.4834H54.7025V6.46442H57.3081L59.4702 13.9426C59.5672 14.2689 59.6781 14.7689 59.7543 15.3105C59.8513 14.7689 59.9622 14.2759 60.0592 13.9426L62.2421 6.46442H64.7091V20.4834H62.9281V10.8874C62.9281 10.4847 62.9281 10.0195 62.9489 9.51957C62.8519 10.0126 62.7618 10.4153 62.644 10.8111L59.7543 20.7125H59.6365L56.7745 10.7625C56.6567 10.3875 56.5666 9.93618 56.4904 9.51262V9.51957ZM42.8735 9.16545L40.1293 9.49179V21.5596L38.0642 21.8443V9.77647L35.3616 10.2V8.29751C37.6623 7.89478 40.552 7.499 42.8735 7.26292V9.16545ZM25.9926 19.9418V10.2972L28.0854 9.80425V20.039C28.0854 21.1708 28.6467 21.7124 29.5892 21.7124C30.8088 21.7124 31.9591 20.9347 31.9591 19.1224V9.00574L34.0034 8.60302L33.9549 18.9766C33.9549 22.3651 31.7027 23.6357 29.2357 23.6357C27.1222 23.6357 25.9926 22.4831 25.9926 19.9418ZM18.7788 12.3178L21.2943 11.5887L24.7661 24.6425L22.6733 25.205L21.8971 21.9832L18.0719 23.0872L17.2958 26.7325L15.3208 27.3436L18.7718 12.3109L18.7788 12.3178ZM21.4814 20.3445L20.4488 16.1367C20.2825 15.4771 20.1439 14.8175 20.0053 14.019C19.8667 14.8452 19.6796 15.6924 19.5133 16.4423L18.5016 21.1916L21.4814 20.3445Z" fill="white"/>
</svg>
