<svg width="55" height="64" viewBox="0 0 55 64" fill="none" xmlns="http://www.w3.org/2000/svg">
<g id="Logo_icon" clip-path="url(#clip0_9_17217)">
<path id="Vector" d="M54.7482 36.8696C54.6611 36.9194 54.1268 37.1742 53.9781 37.2318C52.888 37.7169 51.9094 37.6368 50.8193 36.9965C50.0354 36.5368 49.3083 35.5256 49.0236 35.1703C48.7985 34.8901 48.5264 34.5231 48.137 34.1747C47.4128 33.5246 46.4323 33.0971 44.7364 33.1283C44.6004 33.1312 44.4654 33.1 44.345 33.0365C42.6315 32.1327 39.6791 31.0307 36.8579 31.1722C36.2991 31.2103 36.2179 30.8042 36.034 30.3504C35.5212 28.9829 35.1474 28.3494 34.799 27.8535C34.3557 27.223 34.161 27.2181 33.793 27.1146C33.384 27.0004 32.9407 26.9565 32.6686 26.4831C32.6354 26.4255 32.5013 26.1747 32.653 25.999C33.0278 25.5636 34.067 24.9633 32.5062 24.0849C31.555 23.549 31.9787 23.2044 32.1363 23.1234C32.3555 23.0112 32.7332 22.9223 33.1843 23.0112C33.6355 23.101 34.1619 23.3694 34.6767 23.9707C35.1855 24.5651 36.9039 27.3411 37.948 29.4475C37.9617 29.4758 37.9852 29.6281 38.177 29.6466C38.4686 29.6749 38.9667 29.6759 39.0695 29.6847C39.23 29.6983 39.2329 29.5685 39.2163 29.5158C37.7357 24.6159 36.033 18.5173 33.0777 14.2742C33.018 14.1522 33.0689 14.0253 33.2558 14.0429C35.9009 14.3133 36.6681 18.0673 38.2172 20.5329C40.2086 23.7032 41.376 22.4607 41.5639 20.3221C41.696 18.8277 41.3006 16.9253 40.2565 15.8584C40.0079 15.5568 39.5686 15.1752 39.3846 14.9497C39.3181 14.8687 39.3083 14.732 39.4844 14.6881C39.5568 14.6705 39.6606 14.6627 39.8015 14.6676C41.0237 14.7613 42.7215 15.7481 43.4349 16.8462C44.8989 19.101 44.7902 20.3123 44.5887 21.1117C44.2452 22.4782 43.6052 23.264 44.3988 25.425C45.9704 29.7022 45.5594 28.8101 44.665 31.5012C44.5887 31.7061 44.7139 31.8584 44.891 31.8418C46.949 31.6534 47.5772 32.1181 48.0215 32.3552C48.0665 32.3796 48.1057 32.4158 48.137 32.4089C48.2162 32.3816 48.2436 32.282 48.2573 32.1483C48.4266 30.9936 48.1849 30.5065 47.9217 29.8262C47.7671 29.427 47.5909 28.976 47.5361 28.5378C47.4461 27.9746 47.5489 27.6573 47.7181 27.2366C48.0078 26.5182 48.181 25.9619 47.9452 24.8804C47.4246 22.5993 45.5506 18.8433 44.3528 16.6793C44.254 16.4929 43.4339 14.9477 43.3048 14.7213C43.2167 14.5671 43.2539 14.3787 43.3194 14.2323C43.3742 14.1112 43.4643 13.8672 43.4643 13.8672C43.75 13.14 43.9017 12.5846 43.9878 11.9502C44.2648 9.90429 43.7275 8.44895 42.244 7.23177C40.8671 6.10146 38.4148 5.6017 35.1493 5.78521L34.4584 5.82425C31.3828 5.99897 27.8971 6.19809 25.2745 5.9814C22.7351 5.77154 21.2526 5.37135 20.7408 4.75641C20.5744 4.55632 20.5108 4.33572 20.5392 4.06046C20.5959 3.50995 20.9306 2.96237 21.4561 2.55827C21.9111 2.20883 22.4484 2.02045 22.829 2.07999C23.5121 2.10829 24.2617 2.49189 25.1287 2.93601C25.9057 3.33426 26.7864 3.78521 27.811 4.07901C28.677 4.32694 29.5343 4.43723 30.3582 4.406C31.1352 4.37672 31.8965 4.21371 32.6207 3.92381C32.927 3.80083 33.1472 3.66027 33.2421 3.57633C33.291 3.53338 33.3096 3.44748 33.2499 3.36744C33.2147 3.31962 33.1697 3.31962 33.0101 3.31962C31.92 3.31962 30.9493 3.14782 30.3318 3.00434C29.6497 2.83255 29.591 2.66759 29.5979 2.60512C29.6125 2.45968 29.9717 2.32108 30.3827 2.30253C32.3946 2.21273 33.9349 2.32108 34.9546 2.39233C35.302 2.41674 35.577 2.43626 35.7746 2.44016C35.9772 2.44407 36.2443 2.43626 36.2551 2.43528C36.3158 2.42943 36.3334 2.39038 36.3383 2.37476C36.35 2.33572 36.3324 2.28984 36.3089 2.27228C35.5995 1.6876 33.2949 0.806194 30.6665 0.341577C26.4371 -0.406104 23.6031 0.207854 21.9708 0.854023C21.646 0.982866 20.8093 1.34402 20.0656 1.91893C19.2455 2.55241 18.7885 3.2425 18.7063 3.97066C18.5957 4.9448 19.3052 6.20395 23.3076 6.66661C27.5458 7.15661 31.5061 7.08731 34.9996 7.02581C35.3646 7.01898 35.7228 7.01312 36.0741 7.00727C38.2866 6.97506 40.1606 7.50605 40.964 8.40014C41.8897 9.42894 41.9445 10.8072 41.7107 11.6739C41.6431 11.9238 41.5052 12.2996 41.3408 12.5378C41.0863 12.8814 40.8074 12.9858 40.2956 12.8501C38.6604 12.4197 35.7423 11.4602 34.3283 10.9838C33.0689 10.5602 32.0737 10.2244 31.2301 10.0185C28.725 9.40649 27.9431 9.81156 26.2619 10.8716C25.8568 11.1273 25.4448 11.4065 24.9672 11.7305C24.2773 12.1991 23.4945 12.731 22.4543 13.3792C21.827 13.7696 21.004 14.2215 20.1331 14.6998C19.2475 15.1859 18.3315 15.6886 17.4342 16.2254C14.5562 17.9101 14.0972 20.1698 13.5659 22.7857C13.1891 24.6422 12.7615 26.7457 11.3396 28.8765C11.184 29.1098 9.95197 30.6002 9.68971 31.0239C8.71603 32.5846 8.19347 33.9316 8.39897 36.1971C8.55359 37.8906 7.97231 39.3645 7.41061 40.7906C6.96829 41.9121 6.55142 42.9721 6.48194 44.1063C6.43008 44.8081 6.45552 45.4641 6.47998 46.0976C6.52108 47.1498 6.53674 48.1981 6.21479 49.1068C5.96721 49.8038 5.34092 50.4909 5.09726 51.1654C4.78509 52.0331 4.56589 53.2669 4.56589 54.4001C4.54632 55.3548 3.83489 56.0575 3.08237 56.8003C2.4189 57.4553 1.72411 58.1434 1.47163 59.0336C1.43836 59.1527 1.41586 59.2425 1.37182 59.3128C1.30625 59.4182 1.2084 59.4856 1.07629 59.5793C0.82186 59.7598 0.513609 59.997 0.177957 60.6715C-0.10583 61.2406 -0.0246082 62.2557 0.235693 62.7496C0.275815 62.8257 0.387372 63.0053 0.559602 63.0248C0.676052 63.0385 0.793481 62.977 0.908953 62.8423C0.908953 62.8423 1.64386 61.9941 1.93059 61.7393C2.03138 61.6525 2.15077 61.6681 2.21927 61.7198C2.30049 61.7803 2.3181 61.8818 2.26819 61.9902C2.23884 62.0536 1.79554 62.8404 1.5372 63.5041L1.53133 63.5207C1.4961 63.6144 1.45206 63.7315 1.51567 63.8291C1.57634 63.9238 1.72117 63.9756 1.96973 63.9912C2.07933 63.9951 2.18502 63.997 2.28777 63.997C3.64994 63.997 4.36626 63.6359 4.73518 63.3186C4.87903 63.1654 4.90741 63.099 4.95536 62.9887C4.96809 62.9604 4.98179 62.9272 5.00038 62.8862C5.27242 62.1571 5.45542 61.3147 5.47694 60.6861C5.47694 60.4197 5.55327 60.3435 5.73627 60.161C6.45356 59.4387 6.45454 58.486 6.45454 57.5636C6.45454 56.7164 6.45552 55.8399 7.01429 55.1488C8.53793 53.4485 9.3296 51.4602 10.0958 49.5373C10.8855 47.5539 11.7026 45.5031 13.3232 43.793C13.7312 43.3743 14.1315 43.1468 14.3957 43.1888C14.5249 43.2083 14.6266 43.2913 14.7 43.4358C15.0474 44.0761 14.9427 44.937 14.8419 45.7696C14.7274 46.7105 14.6198 47.5998 15.1198 48.1815C15.4535 48.6129 15.5436 49.0678 15.3792 49.4992C15.1658 50.1795 14.516 52.2518 12.966 53.1683C12.9288 53.1908 12.5207 53.4807 12.3925 53.6037C12.326 53.6681 12.2771 53.755 12.2203 53.8555C12.0843 54.0976 11.916 54.3982 11.3836 54.5544C10.8004 54.7008 10.2514 55.0541 9.95197 55.4768C9.1329 56.6315 9.16813 58.0614 9.24446 58.4714C9.2748 58.6305 9.32764 58.8394 9.4803 59.0463C9.57326 59.1732 9.68091 59.2484 9.79246 59.265C9.88445 59.2786 9.97546 59.2513 10.0616 59.1859C10.1516 59.1176 10.2583 58.9946 10.3933 58.8384C10.6047 58.5944 10.8679 58.2898 11.1997 58.0468C11.3063 57.9687 11.411 57.9873 11.4727 58.0302C11.5314 58.0702 11.5578 58.1356 11.5412 58.1942C11.5099 58.3016 11.411 58.4577 11.2858 58.6539C11.1263 58.9038 10.9286 59.2152 10.772 59.5822C10.7329 59.6642 10.728 59.7393 10.7573 59.8057C10.8024 59.9102 10.9139 59.9531 10.9472 59.9638C11.9336 60.2781 13.4063 59.9053 14.2313 59.1322C14.6442 58.7447 14.8458 58.2313 14.8458 57.5617C14.8458 57.3918 14.9271 57.1283 15.1032 56.9526C15.6835 56.4568 15.9242 55.6827 16.1786 54.8628C16.2393 54.6676 16.3019 54.4665 16.3695 54.2684C16.6327 53.4963 16.9791 52.8326 17.8158 52.1024C18.902 51.0893 19.3933 50.1337 19.7025 49.5451C20.0176 48.9116 20.0871 48.5583 20.317 48.1883C20.7701 47.4748 22.3006 47.3401 22.8662 47.673C23.1011 47.8116 23.153 48.0019 23.0218 48.241C22.9357 48.3962 22.1284 49.6993 21.7487 50.5895C21.5618 51.0268 21.141 51.1898 20.8895 51.3362C19.3737 52.2196 19.0977 53.8848 19.0537 54.5661C19.04 54.7789 19.0635 55.0629 19.1711 55.221C19.2338 55.3128 19.3209 55.3713 19.4168 55.387C19.5117 55.4026 19.6086 55.3753 19.6976 55.3069C19.7857 55.2396 20.6067 54.4138 20.7046 54.3279C20.8406 54.2088 20.96 54.2293 21.0197 54.283C21.0842 54.3396 21.1107 54.4529 21.0265 54.5768C20.912 54.7457 20.3454 55.5968 20.412 55.7833C20.5245 56.0985 20.8465 56.0927 21.1694 56.0956C23.7695 55.876 24.6893 54.0292 24.6893 54.0292C24.752 53.9219 24.8302 53.7794 24.7891 53.3958C24.7148 52.7037 24.5513 50.3035 25.9419 48.8091C26.3558 48.3513 26.5985 48.6608 26.6925 48.8648C26.8608 49.2318 27.1103 49.8682 27.2512 50.1874C27.5517 50.8648 27.7572 51.3645 28.1036 52.0341C28.6878 53.1644 29.5656 53.3216 30.6528 53.1849C32.058 53.0092 33.0268 53.1215 33.9711 53.2142C34.7726 53.2806 35.2159 53.3343 35.8059 52.7974C36.1269 52.5046 36.7434 51.9677 37.1574 51.384C37.4196 51.0151 37.5008 50.7808 37.4343 50.2069C37.2396 47.3225 38.7436 44.816 41.4553 43.5041C41.8623 43.3401 42.3135 43.3899 42.5894 43.7598C43.1971 44.6598 44.6121 46.9633 44.6121 48.9194C44.6121 49.1039 44.5397 49.3069 44.4546 49.5431C44.2628 50.078 44.024 50.7428 44.4673 51.6495C44.4947 52.4343 44.2031 53.0473 43.9457 53.589C43.5797 54.3591 43.2901 54.9673 44.2921 55.5666C44.575 55.7354 44.9429 55.8877 45.4156 56.0302C45.443 56.039 45.4713 56.0429 45.4968 56.0429C45.5379 56.0429 45.5751 56.0331 45.6054 56.0126C45.6396 55.9902 45.6612 55.957 45.6661 55.9209C45.6935 55.6944 45.7209 54.9097 45.7629 54.7252C45.7796 54.651 45.8177 54.5622 45.9039 54.5573C45.9831 54.5524 46.0624 54.6178 46.0849 54.6803C46.1651 54.8687 46.3687 55.6368 46.4245 55.7589C46.4724 55.8633 46.5302 55.9346 46.6065 55.957C47.0087 56.0722 47.5577 55.384 47.7622 55.0287C48.1164 54.2977 47.9716 53.2113 47.3933 52.2645C47.3081 52.0829 47.2964 52.0097 47.2954 51.8438C47.5087 50.9819 47.3531 50.5456 47.1887 50.0839C47.0938 49.8174 46.9979 49.5422 46.9549 49.1634C46.7993 47.8067 47.632 43.5119 47.7103 43.0707C47.8522 42.2723 47.9687 41.7022 48.0195 41.1156C48.0685 40.5475 47.8356 39.8828 47.4392 39.4611C47.0762 39.0746 46.6388 38.7203 46.216 38.3777C45.8432 38.0751 45.4909 37.7901 45.2022 37.4953C44.7364 37.019 44.5877 36.324 44.5916 36.1278C44.5936 36.0751 44.6033 36.0409 44.6219 36.0243C44.6366 36.0107 44.6601 36.0058 44.6943 36.0087C45.3363 36.0546 45.85 36.4792 46.5008 37.017C47.083 37.4982 47.7426 38.0429 48.6674 38.4519C50.4934 39.2601 52.2274 39.141 53.9683 38.0868C54.7081 37.5627 54.9371 37.1137 54.9743 37.0512C55.0203 36.9731 54.9537 36.7457 54.7414 36.8667L54.7482 36.8696ZM14.2763 29.6642C14.382 28.8238 15.0044 27.9287 15.2774 26.8794C15.6659 25.6944 15.7735 23.6242 15.9849 21.9834C16.0906 21.1654 16.4037 20.8189 16.9958 20.7467C17.3872 20.7115 17.7943 21.0512 18.0047 22.2069C18.7327 26.9389 20.1575 27.5939 20.9854 28.8472C21.0001 28.8696 21.0148 28.8931 21.0275 28.9175C21.2398 29.3108 21.3074 29.6759 20.9746 29.9414C20.7799 30.0976 20.1311 30.3299 19.0273 29.6661C17.7033 28.8696 17.5036 28.0126 15.3087 29.7647C15.3087 29.7647 15.0151 29.9921 14.7333 30.0546C14.4945 30.1073 14.2323 30.0156 14.2763 29.6642ZM25.7677 47.0248C25.6884 47.0736 25.6004 47.0405 25.4712 46.9585C24.5993 46.4021 22.1832 45.9638 20.1429 46.7789C18.0438 47.6173 16.1219 48.8023 15.9937 46.732C15.9683 44.897 16.3597 44.0976 15.7207 43.0063C15.7207 43.0063 15.6933 42.9692 15.6649 42.9253C15.6101 42.8384 15.6766 42.8189 15.6972 42.8179C18.6447 42.5885 19.4314 41.6691 19.6154 41.3479C19.6555 41.2776 19.6027 41.2015 19.5273 41.1927C18.8502 41.1176 15.4741 41.017 14.1158 41.2122C11.7281 41.5568 10.1242 45.1439 9.81301 45.4836C9.45485 45.875 9.00275 45.5754 9.00275 45.2181C9.00275 44.6198 9.357 41.714 9.59283 40.7066C9.96567 39.1117 10.4784 37.9277 12.0383 37.6876C13.1314 37.5197 15.8136 37.2366 15.6287 36.5124C15.476 35.9141 15.3997 35.4455 15.3977 35.18C15.3958 34.8267 15.5768 34.7554 15.936 34.8355C16.2012 34.894 16.5574 35.0512 17.0134 35.1586C20.3875 35.9502 22.1157 35.3196 24.1266 34.4284C24.1834 34.4031 24.931 34.0673 24.977 34.0429C25.3391 33.8418 25.7951 34.2049 25.5935 34.6354C25.4869 34.8628 25.342 34.9682 25.0328 35.2659C24.3683 35.9033 21.8916 37.9297 23.3839 41.3538C24.5474 44.0234 24.886 44.7154 25.7119 46.5358C25.846 46.8306 25.8656 46.9633 25.7667 47.0248H25.7677ZM32.0404 51.6447C31.876 51.8994 31.6225 52.081 31.1293 52.081C30.5236 52.081 30.094 51.8994 29.8376 51.6261C29.3102 51.0649 29.2446 50.2967 29.3738 49.794C29.456 49.4758 29.6478 49.2659 29.8533 49.2054C29.9433 49.1752 29.9922 49.182 30.0372 49.2406C30.1282 49.387 30.4561 49.9043 30.5314 50.0117C30.6195 50.1376 30.78 50.2489 30.9111 50.3006C31.1577 50.3992 31.4718 50.4841 31.6382 50.5592C32.147 50.7789 32.2645 51.2991 32.0423 51.6437L32.0404 51.6447ZM41.7684 42.203C41.7038 42.3064 41.6471 42.323 41.5609 42.3621C38.5049 43.5158 36.0751 46.6276 36.5154 50.367C36.5242 50.5622 36.4626 50.8365 36.2786 51.02C36.2786 51.02 35.6366 51.67 35.2335 51.9472C35.0955 52.0419 34.9399 52.119 34.5798 52.0956C34.0142 52.0595 33.2186 52.0097 33.2186 52.0097C33.0053 51.9736 33.0963 51.7891 33.1129 51.7481C33.1286 51.7091 33.1432 51.6642 33.155 51.6124C33.2705 51.0512 33.1883 50.2654 32.3976 49.9707C32.284 49.9072 32.3555 49.8028 32.3692 49.7686C32.7087 48.935 33.1334 47.9033 33.474 46.4558C33.6795 45.5812 33.5533 45.0531 33.246 44.4245C33.1775 44.285 33.0884 44.1571 32.9876 44.039L32.5072 43.4036C32.3731 43.2484 32.4083 43.0854 32.6011 43.0161L33.2793 42.8433C33.4446 42.7847 33.429 42.5339 33.2695 42.4938L32.9201 42.3826C32.5894 42.2469 32.3878 41.9834 32.239 41.7794C32.2146 41.7462 32.1715 41.6788 32.1314 41.6056C32.057 41.4719 32.0032 41.3264 31.9719 41.1771L31.9308 40.9799C31.9259 40.8794 31.7683 40.8784 31.6989 40.9477C31.1646 41.4836 30.9992 42.3055 31.3916 42.9585C31.9415 43.874 31.919 43.7833 32.4093 44.4763C32.5708 44.7047 32.6676 44.8911 32.7215 45.1176C32.7958 45.4299 32.7743 46.2215 32.5649 46.7867L32.0091 48.4714C31.6734 49.2249 31.2986 49.0434 31.0863 48.9028C30.8123 48.7213 30.5569 48.2498 30.4189 47.751C30.4189 47.751 30.0363 46.3445 30.05 44.4753C30.0245 44.2498 29.8699 43.8799 29.3787 44.203L28.0703 45.2855C27.8853 45.384 27.5654 45.3304 27.6299 44.9058C27.6299 44.9058 28.5704 40.7222 29.5832 38.365C30.3435 36.4421 29.4971 35.3587 28.4882 34.1688C26.8402 32.0712 26.4703 29.2493 30.3083 30.7945C31.3387 31.264 31.7067 30.6549 32.9779 30.5456C33.8899 30.4665 34.1893 30.8345 34.2676 30.9907C34.3371 31.1303 34.3616 31.2835 34.3694 31.3645C34.3733 31.3997 34.3616 31.4231 34.3224 31.4231C32.1705 31.5451 29.6027 33.3284 31.5863 36.1259C33.5337 38.8667 38.8924 39.7881 41.285 37.1752C41.3163 37.14 41.3241 37.061 41.2762 37.0219C41.2517 37.0014 41.2096 36.9829 41.1529 37.0034C40.6293 37.2015 40.1479 37.3508 39.6645 37.4299C38.5215 37.6173 36.0985 37.4807 34.9536 36.1776C34.2989 35.4319 34.3156 34.571 35.4233 34.4392C36.0398 34.3894 36.3412 34.5026 36.6084 34.5075C37.2992 34.4977 37.4411 33.8096 37.2983 33.4973C37.1799 33.1986 36.9049 32.8384 36.5174 32.5241C36.1602 32.2703 36.353 32.0058 36.5859 32.0117C38.8023 32.1376 40.921 32.5202 41.7205 35.1742C41.7508 35.2737 41.8056 35.6085 41.8897 35.7345C42.061 35.9882 42.3595 36.1786 42.6883 36.4646C43.4927 37.1644 44.2148 38.4119 41.7684 42.202V42.203ZM44.6474 40.5622C45.0368 39.7501 45.5653 40.2947 45.8168 41.1859C46.1368 42.3182 46.1828 44.1405 46.0477 45.0795C45.8716 46.3055 45.2942 46.0595 44.985 45.6242C44.4967 44.936 43.9692 44.0195 43.6013 43.3909C43.5905 43.3713 43.5797 43.3518 43.57 43.3323C43.3987 42.979 43.3733 42.6988 43.5523 42.4363C43.7373 42.1542 44.4683 40.936 44.6474 40.5622Z" fill="white"/>
</g>
<defs>
<clipPath id="clip0_9_17217">
<rect width="54.995" height="64" fill="white"/>
</clipPath>
</defs>
</svg>
