<svg width="970" height="1024" viewBox="0 0 970 1024" fill="none" xmlns="http://www.w3.org/2000/svg">
<g opacity="0.1" clip-path="url(#clip0_736_6615)">
<path d="M476.43 588.01L510.563 528.902H442.298L476.43 588.01Z" fill="white"/>
<path d="M476.43 588.01L442.298 528.902L408.166 588.01H476.43Z" fill="white"/>
<path d="M510.563 528.902L476.43 588.01H544.695L510.563 528.902Z" fill="white"/>
<path d="M577.908 765.773L612.04 706.665H543.775L577.908 765.773Z" fill="white"/>
<path d="M577.908 765.773L543.775 706.665L509.643 765.773H577.908Z" fill="white"/>
<path d="M612.04 706.665L577.908 765.773H646.172L612.04 706.665Z" fill="white"/>
<path d="M577.908 647.214L612.04 588.106H543.775L577.908 647.214Z" fill="white"/>
<path d="M577.908 647.214L543.775 588.106L509.643 647.214H577.908Z" fill="white"/>
<path d="M612.04 588.106L577.908 647.214H646.172L612.04 588.106Z" fill="white"/>
<path d="M680.057 706.521L714.189 647.413H645.925L680.057 706.521Z" fill="white"/>
<path d="M680.057 706.521L645.925 647.413L611.793 706.521H680.057Z" fill="white"/>
<path d="M714.189 647.413L680.057 706.521H748.322L714.189 647.413Z" fill="white"/>
<path d="M680.057 706.665L714.189 765.773L748.322 706.665H680.057Z" fill="white"/>
<path d="M473.419 825.162L507.551 766.054H439.286L473.419 825.162Z" fill="white"/>
<path d="M473.419 825.162L439.286 766.054L405.154 825.162H473.419Z" fill="white"/>
<path d="M507.551 766.054L473.418 825.162H541.683L507.551 766.054Z" fill="white"/>
<path d="M373.917 765.416L408.049 706.308H339.785L373.917 765.416Z" fill="white"/>
<path d="M373.917 765.416L339.785 706.308L305.653 765.416H373.917Z" fill="white"/>
<path d="M577.174 885.189L611.306 826.081H543.041L577.174 885.189Z" fill="white"/>
<path d="M577.174 885.189L543.041 826.081L508.909 885.189H577.174Z" fill="white"/>
<path d="M611.306 826.081L577.174 885.189H645.438L611.306 826.081Z" fill="white"/>
<path d="M679.817 944.441L713.949 885.333H645.685L679.817 944.441Z" fill="white"/>
<path d="M679.817 944.441L645.685 885.333L611.553 944.441H679.817Z" fill="white"/>
<path d="M713.949 885.333L679.817 944.441H748.082L713.949 885.333Z" fill="white"/>
<path d="M679.817 944.578L713.949 1003.69L748.082 944.578H679.817Z" fill="white"/>
<path d="M679.817 826.081L713.949 766.973H645.685L679.817 826.081Z" fill="white"/>
<path d="M679.817 826.081L645.685 766.973L611.553 826.081H679.817Z" fill="white"/>
<path d="M713.949 766.973L679.817 826.081H748.082L713.949 766.973Z" fill="white"/>
<path d="M679.817 826.225L713.949 885.333L748.082 826.225H679.817Z" fill="white"/>
<path d="M781.967 885.189L816.099 826.081H747.834L781.967 885.189Z" fill="white"/>
<path d="M781.967 885.189L747.834 826.081L713.702 885.189H781.967Z" fill="white"/>
<path d="M816.099 826.081L781.967 885.189H850.231L816.099 826.081Z" fill="white"/>
<path d="M781.967 885.333L816.099 944.441L850.231 885.333H781.967Z" fill="white"/>
<path d="M170.661 650.678L204.793 591.57H136.529L170.661 650.678Z" fill="white"/>
<path d="M170.661 650.678L136.529 591.57L102.397 650.678H170.661Z" fill="white"/>
<path d="M272.865 707.159L306.998 648.051H238.733L272.865 707.159Z" fill="white"/>
<path d="M375.262 649.649L409.394 590.541H341.13L375.262 649.649Z" fill="white"/>
<path d="M375.262 649.649L341.13 590.541L306.998 649.649H375.262Z" fill="white"/>
<path d="M373.917 885.121L408.049 826.013H339.785L373.917 885.121Z" fill="white"/>
<path d="M373.917 885.121L339.785 826.013L305.653 885.121H373.917Z" fill="white"/>
<path d="M271.521 943.515L305.653 884.407H237.388L271.521 943.515Z" fill="white"/>
<path d="M271.521 943.515L237.389 884.407L203.256 943.515H271.521Z" fill="white"/>
<path d="M476.43 706.363L510.563 647.255H442.298L476.43 706.363Z" fill="white"/>
<path d="M476.43 706.363L442.298 647.255L408.166 706.363H476.43Z" fill="white"/>
<path d="M510.563 647.255L476.43 706.363H544.695L510.563 647.255Z" fill="white"/>
<path d="M473.268 944.51L507.4 885.402H439.135L473.268 944.51Z" fill="white"/>
<path d="M473.268 944.51L439.135 885.402L405.003 944.51H473.268Z" fill="white"/>
<path d="M507.4 885.402L473.268 944.51H541.532L507.4 885.402Z" fill="white"/>
<path d="M680.057 588.01L714.189 528.902H645.925L680.057 588.01Z" fill="white"/>
<path d="M680.057 588.01L645.925 528.902L611.793 588.01H680.057Z" fill="white"/>
<path d="M714.189 528.902L680.057 588.01H748.322L714.189 528.902Z" fill="white"/>
<path d="M68.2644 825.087L102.397 765.979H34.1322L68.2644 825.087Z" fill="white"/>
<path d="M68.2644 825.087L34.1322 765.979L0 825.087H68.2644Z" fill="white"/>
<path d="M170.908 884.339L205.04 825.231H136.776L170.908 884.339Z" fill="white"/>
<path d="M170.908 884.339L136.776 825.231L102.644 884.339H170.908Z" fill="white"/>
<path d="M170.908 765.979L205.04 706.871H136.776L170.908 765.979Z" fill="white"/>
<path d="M170.908 765.979L136.776 706.871L102.644 765.979H170.908Z" fill="white"/>
<path d="M273.057 825.087L307.19 765.979H238.925L273.057 825.087Z" fill="white"/>
<path d="M273.057 825.087L238.925 765.979L204.793 825.087H273.057Z" fill="white"/>
<path d="M782.214 647.214L816.346 588.106H748.081L782.214 647.214Z" fill="white"/>
<path d="M782.214 647.214L748.081 588.106L713.949 647.214H782.214Z" fill="white"/>
<path d="M816.346 588.106L782.214 647.214H850.478L816.346 588.106Z" fill="white"/>
<path d="M782.214 647.358L816.346 706.466L850.478 647.358H782.214Z" fill="white"/>
<path d="M782.447 528.594L816.579 469.486H748.314L782.447 528.594Z" fill="white"/>
<path d="M782.447 528.594L748.315 469.486L714.182 528.594H782.447Z" fill="white"/>
<path d="M816.579 469.486L782.447 528.594H850.711L816.579 469.486Z" fill="white"/>
<path d="M782.447 528.731L816.579 587.839L850.711 528.731H782.447Z" fill="white"/>
<path d="M884.994 706.363L919.126 647.255H850.862L884.994 706.363Z" fill="white"/>
<path d="M884.994 706.363L850.862 647.255L816.73 706.363H884.994Z" fill="white"/>
<path d="M919.127 647.255L884.994 706.363H953.259L919.127 647.255Z" fill="white"/>
<path d="M884.994 706.507L919.127 765.615L953.259 706.507H884.994Z" fill="white"/>
<path d="M884.994 588.01L919.126 528.902H850.862L884.994 588.01Z" fill="white"/>
<path d="M884.994 588.01L850.862 528.902L816.73 588.01H884.994Z" fill="white"/>
<path d="M919.127 528.902L884.994 588.01H953.259L919.127 528.902Z" fill="white"/>
<path d="M884.994 588.147L919.127 647.255L953.259 588.147H884.994Z" fill="white"/>
<path d="M987.713 647.214L1021.85 588.106H953.581L987.713 647.214Z" fill="white"/>
<path d="M987.713 647.214L953.581 588.106L919.449 647.214H987.713Z" fill="white"/>
<path d="M987.713 647.358L953.581 706.466H1021.85L987.713 647.358Z" fill="white"/>
<path d="M782.214 765.492L816.346 706.384H748.081L782.214 765.492Z" fill="white"/>
<path d="M782.214 765.492L748.081 706.384L713.949 765.492H782.214Z" fill="white"/>
<path d="M816.346 706.384L782.214 765.492H850.478L816.346 706.384Z" fill="white"/>
<path d="M782.214 765.629L816.346 824.737L850.478 765.629H782.214Z" fill="white"/>
<path d="M884.994 824.408L919.126 765.3H850.862L884.994 824.408Z" fill="white"/>
<path d="M884.994 824.408L850.862 765.3L816.73 824.408H884.994Z" fill="white"/>
<path d="M919.127 765.3L884.994 824.408H953.259L919.127 765.3Z" fill="white"/>
<path d="M884.994 824.552L919.127 883.66L953.259 824.552H884.994Z" fill="white"/>
<path d="M371.118 1003.62L405.25 944.51H336.986L371.118 1003.62Z" fill="white"/>
<path d="M371.118 1003.62L336.986 944.51L302.854 1003.62H371.118Z" fill="white"/>
<path d="M576.783 1003.82L610.915 944.716H542.65L576.783 1003.82Z" fill="white"/>
<path d="M576.782 1003.82L542.65 944.716L508.518 1003.82H576.782Z" fill="white"/>
<path d="M610.915 944.716L576.782 1003.82H645.047L610.915 944.716Z" fill="white"/>
<path d="M473.988 1062.93L508.12 1003.82H439.856L473.988 1062.93Z" fill="white"/>
<path d="M473.988 1062.93L439.856 1003.82L405.724 1062.93H473.988Z" fill="white"/>
<path d="M508.12 1003.82L473.988 1062.93H542.252L508.12 1003.82Z" fill="white"/>
<path d="M268.708 1062.86L302.84 1003.75H234.576L268.708 1062.86Z" fill="white"/>
<path d="M268.708 1062.86L234.576 1003.75L200.443 1062.86H268.708Z" fill="white"/>
<path d="M987.35 765.697L1021.48 706.59H953.218L987.35 765.697Z" fill="white"/>
<path d="M987.35 765.697L953.218 706.59L919.085 765.697H987.35Z" fill="white"/>
<path d="M987.35 765.842L953.218 824.95H1021.48L987.35 765.842Z" fill="white"/>
<path d="M884.363 944.578L918.495 885.47H850.231L884.363 944.578Z" fill="white"/>
<path d="M884.363 944.578L850.231 885.47L816.099 944.578H884.363Z" fill="white"/>
<path d="M918.495 885.47L884.363 944.578H952.628L918.495 885.47Z" fill="white"/>
<path d="M884.363 944.722L918.495 1003.83L952.628 944.722H884.363Z" fill="white"/>
<path d="M782.447 1003.76L816.579 944.647H748.314L782.447 1003.76Z" fill="white"/>
<path d="M782.447 1003.76L748.315 944.647L714.182 1003.76H782.447Z" fill="white"/>
<path d="M816.579 944.647L782.447 1003.76H850.711L816.579 944.647Z" fill="white"/>
<path d="M782.447 1003.89L816.579 1063L850.711 1003.89H782.447Z" fill="white"/>
<path d="M987.35 884.14L1021.48 825.032H953.218L987.35 884.14Z" fill="white"/>
<path d="M987.35 884.14L953.218 825.032L919.085 884.14H987.35Z" fill="white"/>
<path d="M987.35 884.277L953.218 943.385H1021.48L987.35 884.277Z" fill="white"/>
<path d="M987.713 1002.44L1021.85 943.33H953.581L987.713 1002.44Z" fill="white"/>
<path d="M987.713 1002.44L953.581 943.33L919.449 1002.44H987.713Z" fill="white"/>
<path d="M987.713 1002.58L953.581 1061.68H1021.85L987.713 1002.58Z" fill="white"/>
<path d="M884.363 1061.61L918.495 1002.51H850.231L884.363 1061.61Z" fill="white"/>
<path d="M884.363 1061.61L850.231 1002.51L816.099 1061.61H884.363Z" fill="white"/>
<path d="M918.495 1002.51L884.363 1061.61H952.628L918.495 1002.51Z" fill="white"/>
<path d="M678.946 1062.73L713.078 1003.62H644.813L678.946 1062.73Z" fill="white"/>
<path d="M678.946 1062.73L644.813 1003.62L610.681 1062.73H678.946Z" fill="white"/>
<path d="M713.078 1003.62L678.946 1062.73H747.21L713.078 1003.62Z" fill="white"/>
<path d="M373.917 528.765L408.049 469.657H339.785L373.917 528.765Z" fill="white"/>
<path d="M373.917 528.765L339.785 469.657L305.653 528.765H373.917Z" fill="white"/>
<path d="M578.93 528.662L613.062 469.554H544.798L578.93 528.662Z" fill="white"/>
<path d="M578.93 528.662L544.798 469.554L510.666 528.662H578.93Z" fill="white"/>
<path d="M613.062 469.554L578.93 528.662H647.194L613.062 469.554Z" fill="white"/>
<path d="M68.5113 1061.55L102.644 1002.44H34.3792L68.5113 1061.55Z" fill="white"/>
<path d="M68.5114 1061.55L34.3792 1002.44L0.247009 1061.55H68.5114Z" fill="white"/>
<path d="M68.5113 943.186L102.644 884.078H34.3792L68.5113 943.186Z" fill="white"/>
<path d="M68.5114 943.186L34.3792 884.078L0.247009 943.186H68.5114Z" fill="white"/>
<path d="M170.661 1002.29L204.793 943.186H136.529L170.661 1002.29Z" fill="white"/>
<path d="M170.661 1002.29L136.529 943.186L102.397 1002.29H170.661Z" fill="white"/>
<path d="M477.446 115.922L511.578 56.8142H443.314L477.446 115.922Z" fill="white"/>
<path d="M477.446 115.922L443.314 56.8142L409.181 115.922H477.446Z" fill="white"/>
<path d="M511.578 56.8142L477.446 115.922H545.71L511.578 56.8142Z" fill="white"/>
<path d="M578.923 293.685L613.055 234.577H544.791L578.923 293.685Z" fill="white"/>
<path d="M578.923 293.685L544.791 234.577L510.659 293.685H578.923Z" fill="white"/>
<path d="M613.055 234.577L578.923 293.685H647.187L613.055 234.577Z" fill="white"/>
<path d="M578.923 175.133L613.055 116.025H544.791L578.923 175.133Z" fill="white"/>
<path d="M578.923 175.133L544.791 116.025L510.659 175.133H578.923Z" fill="white"/>
<path d="M613.055 116.025L578.923 175.133H647.187L613.055 116.025Z" fill="white"/>
<path d="M681.079 234.44L715.212 175.332H646.947L681.079 234.44Z" fill="white"/>
<path d="M681.079 234.44L646.947 175.332L612.815 234.44H681.079Z" fill="white"/>
<path d="M715.212 175.332L681.079 234.44H749.344L715.212 175.332Z" fill="white"/>
<path d="M681.079 234.577L715.212 293.685L749.344 234.577H681.079Z" fill="white"/>
<path d="M472.78 353.005L506.913 293.897H438.648L472.78 353.005Z" fill="white"/>
<path d="M472.78 353.005L438.648 293.897L404.516 353.005H472.78Z" fill="white"/>
<path d="M506.913 293.897L472.781 353.005H541.045L506.913 293.897Z" fill="white"/>
<path d="M578.196 413.108L612.328 354H544.064L578.196 413.108Z" fill="white"/>
<path d="M578.196 413.108L544.064 354L509.931 413.108H578.196Z" fill="white"/>
<path d="M612.328 354L578.196 413.108H646.46L612.328 354Z" fill="white"/>
<path d="M680.833 472.353L714.965 413.245H646.7L680.833 472.353Z" fill="white"/>
<path d="M680.832 472.353L646.7 413.245L612.568 472.353H680.832Z" fill="white"/>
<path d="M714.964 413.245L680.832 472.353H749.097L714.964 413.245Z" fill="white"/>
<path d="M680.832 472.497L714.964 531.605L749.097 472.497H680.832Z" fill="white"/>
<path d="M680.833 354L714.965 294.892H646.7L680.833 354Z" fill="white"/>
<path d="M680.832 354L646.7 294.892L612.568 354H680.832Z" fill="white"/>
<path d="M714.964 294.892L680.832 354H749.097L714.964 294.892Z" fill="white"/>
<path d="M680.832 354.137L714.964 413.245L749.097 354.137H680.832Z" fill="white"/>
<path d="M782.989 413.108L817.121 354H748.856L782.989 413.108Z" fill="white"/>
<path d="M782.989 413.108L748.857 354L714.724 413.108H782.989Z" fill="white"/>
<path d="M817.121 354L782.989 413.108H851.253L817.121 354Z" fill="white"/>
<path d="M782.989 413.245L817.121 472.353L851.253 413.245H782.989Z" fill="white"/>
<path d="M273.881 118.385L308.013 59.2769H239.749L273.881 118.385Z" fill="white"/>
<path d="M372.14 411.64L406.273 352.532H338.008L372.14 411.64Z" fill="white"/>
<path d="M477.446 234.282L511.578 175.174H443.314L477.446 234.282Z" fill="white"/>
<path d="M511.578 175.174L477.446 234.282H545.71L511.578 175.174Z" fill="white"/>
<path d="M474.29 472.429L508.422 413.321H440.158L474.29 472.429Z" fill="white"/>
<path d="M474.29 472.429L440.158 413.321L406.026 472.429H474.29Z" fill="white"/>
<path d="M508.422 413.321L474.29 472.429H542.554L508.422 413.321Z" fill="white"/>
<path d="M681.079 115.922L715.212 56.8142H646.947L681.079 115.922Z" fill="white"/>
<path d="M681.079 115.922L646.947 56.8142L612.815 115.922H681.079Z" fill="white"/>
<path d="M715.212 56.8142L681.079 115.922H749.344L715.212 56.8142Z" fill="white"/>
<path d="M171.923 293.897L137.791 234.79L103.659 293.897H171.923Z" fill="white"/>
<path d="M783.229 175.133L817.361 116.025H749.097L783.229 175.133Z" fill="white"/>
<path d="M783.229 175.133L749.097 116.025L714.965 175.133H783.229Z" fill="white"/>
<path d="M817.361 116.025L783.229 175.133H851.493L817.361 116.025Z" fill="white"/>
<path d="M783.229 175.27L817.361 234.378L851.493 175.27H783.229Z" fill="white"/>
<path d="M783.469 56.5056L817.601 -2.60229H749.337L783.469 56.5056Z" fill="white"/>
<path d="M783.469 56.5056L749.337 -2.60229L715.205 56.5056H783.469Z" fill="white"/>
<path d="M817.601 -2.60229L783.469 56.5056H851.733L817.601 -2.60229Z" fill="white"/>
<path d="M783.469 56.6497L817.601 115.758L851.733 56.6497H783.469Z" fill="white"/>
<path d="M886.017 234.282L920.149 175.174H851.885L886.017 234.282Z" fill="white"/>
<path d="M886.017 234.282L851.884 175.174L817.752 234.282H886.017Z" fill="white"/>
<path d="M920.149 175.174L886.017 234.282H954.281L920.149 175.174Z" fill="white"/>
<path d="M886.017 234.419L920.149 293.527L954.281 234.419H886.017Z" fill="white"/>
<path d="M886.017 115.922L920.149 56.8142H851.885L886.017 115.922Z" fill="white"/>
<path d="M886.017 115.922L851.884 56.8142L817.752 115.922H886.017Z" fill="white"/>
<path d="M920.149 56.8142L886.017 115.922H954.281L920.149 56.8142Z" fill="white"/>
<path d="M886.017 116.066L920.149 175.174L954.281 116.066H886.017Z" fill="white"/>
<path d="M988.736 175.133L1022.87 116.025H954.604L988.736 175.133Z" fill="white"/>
<path d="M988.736 175.133L954.604 116.025L920.471 175.133H988.736Z" fill="white"/>
<path d="M988.736 175.27L954.604 234.378H1022.87L988.736 175.27Z" fill="white"/>
<path d="M783.229 293.404L817.361 234.296H749.097L783.229 293.404Z" fill="white"/>
<path d="M783.229 293.404L749.097 234.296L714.965 293.404H783.229Z" fill="white"/>
<path d="M817.361 234.296L783.229 293.404H851.493L817.361 234.296Z" fill="white"/>
<path d="M783.229 293.548L817.361 352.656L851.493 293.548H783.229Z" fill="white"/>
<path d="M886.017 352.807L920.149 293.699H851.885L886.017 352.807Z" fill="white"/>
<path d="M886.017 352.807L851.884 293.699L817.752 352.807H886.017Z" fill="white"/>
<path d="M920.149 293.699L886.017 352.807H954.281L920.149 293.699Z" fill="white"/>
<path d="M886.017 352.944L920.149 412.052L954.281 352.944H886.017Z" fill="white"/>
<path d="M372.14 531.536L406.273 472.428H338.008L372.14 531.536Z" fill="white"/>
<path d="M372.14 531.536L338.008 472.428L303.876 531.536H372.14Z" fill="white"/>
<path d="M577.805 531.735L611.937 472.634H543.673L577.805 531.735Z" fill="white"/>
<path d="M577.805 531.735L543.672 472.634L509.54 531.735H577.805Z" fill="white"/>
<path d="M611.937 472.634L577.805 531.735H646.069L611.937 472.634Z" fill="white"/>
<path d="M475.01 590.843L509.142 531.735H440.878L475.01 590.843Z" fill="white"/>
<path d="M475.01 590.843L440.878 531.735L406.746 590.843H475.01Z" fill="white"/>
<path d="M509.142 531.735L475.01 590.843H543.275L509.142 531.735Z" fill="white"/>
<path d="M372.14 649.821L406.273 590.713H338.008L372.14 649.821Z" fill="white"/>
<path d="M372.14 649.821L338.008 590.713L303.876 649.821H372.14Z" fill="white"/>
<path d="M988.372 293.616L1022.5 234.508H954.24L988.372 293.616Z" fill="white"/>
<path d="M988.372 293.616L954.24 234.508L920.108 293.616H988.372Z" fill="white"/>
<path d="M988.372 293.753L954.24 352.861H1022.5L988.372 293.753Z" fill="white"/>
<path d="M885.386 472.497L919.518 413.389H851.253L885.386 472.497Z" fill="white"/>
<path d="M885.385 472.497L851.253 413.389L817.121 472.497H885.385Z" fill="white"/>
<path d="M919.518 413.389L885.385 472.497H953.65L919.518 413.389Z" fill="white"/>
<path d="M885.385 472.634L919.518 531.742L953.65 472.634H885.385Z" fill="white"/>
<path d="M783.469 531.667L817.601 472.559H749.337L783.469 531.667Z" fill="white"/>
<path d="M783.469 531.667L749.337 472.559L715.205 531.667H783.469Z" fill="white"/>
<path d="M817.601 472.559L783.469 531.667H851.733L817.601 472.559Z" fill="white"/>
<path d="M783.469 531.811L817.601 590.919L851.733 531.811H783.469Z" fill="white"/>
<path d="M988.653 411.983L1022.79 352.875H954.521L988.653 411.983Z" fill="white"/>
<path d="M988.653 411.983L954.521 352.875L920.389 411.983H988.653Z" fill="white"/>
<path d="M988.653 412.127L954.521 471.235H1022.79L988.653 412.127Z" fill="white"/>
<path d="M988.736 530.35L1022.87 471.242H954.604L988.736 530.35Z" fill="white"/>
<path d="M988.736 530.35L954.604 471.242L920.471 530.35H988.736Z" fill="white"/>
<path d="M988.736 530.494L954.604 589.602H1022.87L988.736 530.494Z" fill="white"/>
<path d="M885.386 589.526L919.518 530.418H851.253L885.386 589.526Z" fill="white"/>
<path d="M885.385 589.526L851.253 530.418L817.121 589.526H885.385Z" fill="white"/>
<path d="M919.518 530.418L885.385 589.526H953.65L919.518 530.418Z" fill="white"/>
<path d="M885.385 589.67L919.518 648.778L953.65 589.67H885.385Z" fill="white"/>
<path d="M679.961 590.637L714.093 531.536H645.829L679.961 590.637Z" fill="white"/>
<path d="M679.961 590.637L645.829 531.536L611.697 590.637H679.961Z" fill="white"/>
<path d="M714.093 531.536L679.961 590.637H748.225L714.093 531.536Z" fill="white"/>
<path d="M679.961 590.781L714.093 649.889L748.225 590.781H679.961Z" fill="white"/>
<path d="M374.939 56.6841L409.072 -2.42383H340.807L374.939 56.6841Z" fill="white"/>
<path d="M374.939 56.6841L340.807 -2.42383L306.675 56.6841H374.939Z" fill="white"/>
<path d="M579.952 56.5742L614.084 -2.52686H545.82L579.952 56.5742Z" fill="white"/>
<path d="M579.952 56.5742L545.82 -2.52686L511.688 56.5742H579.952Z" fill="white"/>
<path d="M614.084 -2.52686L579.952 56.5742H648.217L614.084 -2.52686Z" fill="white"/>
<path d="M782.077 650.027L816.209 590.919H747.944L782.077 650.027Z" fill="white"/>
<path d="M782.076 650.027L747.944 590.919L713.812 650.027H782.076Z" fill="white"/>
<path d="M816.209 590.919L782.076 650.027H850.341L816.209 590.919Z" fill="white"/>
<path d="M782.076 650.164L816.209 709.272L850.341 650.164H782.076Z" fill="white"/>
<path d="M171.683 530.213L205.815 471.105H137.551L171.683 530.213Z" fill="white"/>
<path d="M171.683 530.213L137.551 471.105L103.419 530.213H171.683Z" fill="white"/>
<path d="M69.5267 710.692L103.659 651.59H35.3945L69.5267 710.692Z" fill="white"/>
<path d="M172.17 769.944L206.302 710.836H138.038L172.17 769.944Z" fill="white"/>
<path d="M172.17 769.944L138.038 710.836L103.906 769.944H172.17Z" fill="white"/>
<path d="M172.17 651.591L206.302 592.483H138.038L172.17 651.591Z" fill="white"/>
<path d="M172.17 651.591L138.038 592.483L103.906 651.591H172.17Z" fill="white"/>
<path d="M987.658 648.634L1021.79 589.526H953.526L987.658 648.634Z" fill="white"/>
<path d="M987.658 648.634L953.526 589.526L919.394 648.634H987.658Z" fill="white"/>
<path d="M987.658 648.778L953.526 707.886H1021.79L987.658 648.778Z" fill="white"/>
<path d="M981.594 173.452L1015.73 114.344H947.461L981.594 173.452Z" fill="white"/>
<path d="M981.594 173.452L947.462 114.344L913.329 173.452H981.594Z" fill="white"/>
<path d="M981.594 54.9004L1015.73 -4.20752H947.461L981.594 54.9004Z" fill="white"/>
<path d="M981.594 54.9004L947.462 -4.20752L913.329 54.9004H981.594Z" fill="white"/>
<path d="M877.104 232.842L911.237 173.734H842.972L877.104 232.842Z" fill="white"/>
<path d="M877.104 232.842L842.972 173.734L808.84 232.842H877.104Z" fill="white"/>
<path d="M911.237 173.734L877.104 232.842H945.369L911.237 173.734Z" fill="white"/>
<path d="M777.603 173.103L811.735 113.995H743.471L777.603 173.103Z" fill="white"/>
<path d="M777.603 173.103L743.471 113.995L709.339 173.103H777.603Z" fill="white"/>
<path d="M980.859 292.875L1014.99 233.768H946.727L980.859 292.875Z" fill="white"/>
<path d="M980.86 292.875L946.727 233.768L912.595 292.875H980.86Z" fill="white"/>
<path d="M574.347 58.3577L608.479 -0.750244H540.215L574.347 58.3577Z" fill="white"/>
<path d="M574.347 58.3577L540.215 -0.750244L506.083 58.3577H574.347Z" fill="white"/>
<path d="M676.551 114.838L710.684 55.7305H642.419L676.551 114.838Z" fill="white"/>
<path d="M778.948 57.3286L813.08 -1.7793H744.816L778.948 57.3286Z" fill="white"/>
<path d="M778.948 57.3286L744.816 -1.7793L710.684 57.3286H778.948Z" fill="white"/>
<path d="M777.603 292.8L811.735 233.692H743.471L777.603 292.8Z" fill="white"/>
<path d="M777.603 292.8L743.471 233.692L709.339 292.8H777.603Z" fill="white"/>
<path d="M675.206 351.195L709.339 292.087H641.074L675.206 351.195Z" fill="white"/>
<path d="M675.207 351.195L641.075 292.087L606.942 351.195H675.207Z" fill="white"/>
<path d="M880.116 114.05L914.249 54.9417H845.984L880.116 114.05Z" fill="white"/>
<path d="M880.116 114.05L845.984 54.9417L811.852 114.05H880.116Z" fill="white"/>
<path d="M914.248 54.9417L880.116 114.05H948.381L914.248 54.9417Z" fill="white"/>
<path d="M876.953 352.189L911.086 293.081H842.821L876.953 352.189Z" fill="white"/>
<path d="M876.954 352.189L842.821 293.081L808.689 352.189H876.954Z" fill="white"/>
<path d="M911.086 293.081L876.954 352.189H945.218L911.086 293.081Z" fill="white"/>
<path d="M471.95 232.773L506.082 173.665H437.818L471.95 232.773Z" fill="white"/>
<path d="M574.594 292.018L608.726 232.91H540.462L574.594 292.018Z" fill="white"/>
<path d="M574.594 292.018L540.462 232.91L506.329 292.018H574.594Z" fill="white"/>
<path d="M574.594 173.665L608.726 114.557H540.462L574.594 173.665Z" fill="white"/>
<path d="M574.594 173.665L540.462 114.557L506.329 173.665H574.594Z" fill="white"/>
<path d="M676.744 232.773L710.876 173.665H642.611L676.744 232.773Z" fill="white"/>
<path d="M676.743 232.773L642.611 173.665L608.479 232.773H676.743Z" fill="white"/>
<path d="M774.804 411.297L808.936 352.189H740.672L774.804 411.297Z" fill="white"/>
<path d="M774.804 411.297L740.672 352.189L706.54 411.297H774.804Z" fill="white"/>
<path d="M980.468 411.503L1014.6 352.395H946.336L980.468 411.503Z" fill="white"/>
<path d="M980.468 411.503L946.336 352.395L912.204 411.503H980.468Z" fill="white"/>
<path d="M877.681 470.611L911.813 411.503H843.549L877.681 470.611Z" fill="white"/>
<path d="M877.681 470.611L843.549 411.503L809.416 470.611H877.681Z" fill="white"/>
<path d="M911.813 411.503L877.681 470.611H945.945L911.813 411.503Z" fill="white"/>
<path d="M774.804 529.582L808.936 470.474H740.672L774.804 529.582Z" fill="white"/>
<path d="M774.804 529.582L740.672 470.474L706.54 529.582H774.804Z" fill="white"/>
<path d="M672.394 470.542L706.526 411.434H638.262L672.394 470.542Z" fill="white"/>
<path d="M672.394 470.542L638.262 411.434L604.129 470.542H672.394Z" fill="white"/>
<path d="M369.554 409.973L403.686 350.865H335.422L369.554 409.973Z" fill="white"/>
<path d="M369.554 409.973L335.422 350.865L301.289 409.973H369.554Z" fill="white"/>
<path d="M472.197 469.225L506.33 410.117H438.065L472.197 469.225Z" fill="white"/>
<path d="M472.197 469.225L438.065 410.117L403.933 469.225H472.197Z" fill="white"/>
<path d="M472.197 350.865L506.33 291.764H438.065L472.197 350.865Z" fill="white"/>
<path d="M472.197 350.865L438.065 291.764L403.933 350.865H472.197Z" fill="white"/>
<path d="M574.347 409.973L608.479 350.865H540.215L574.347 409.973Z" fill="white"/>
<path d="M574.347 409.973L540.215 350.865L506.083 409.973H574.347Z" fill="white"/>
<path d="M472.197 590.459L506.33 531.351H438.065L472.197 590.459Z" fill="white"/>
<path d="M472.197 590.459L438.065 531.351L403.933 590.459H472.197Z" fill="white"/>
<path d="M574.834 649.711L608.967 590.603H540.702L574.834 649.711Z" fill="white"/>
<path d="M574.834 649.711L540.702 590.603L506.57 649.711H574.834Z" fill="white"/>
<path d="M574.834 531.351L608.967 472.243H540.702L574.834 531.351Z" fill="white"/>
<path d="M574.834 531.351L540.702 472.243L506.57 531.351H574.834Z" fill="white"/>
<path d="M676.99 590.459L711.123 531.351H642.858L676.99 590.459Z" fill="white"/>
<path d="M676.99 590.459L642.858 531.351L608.726 590.459H676.99Z" fill="white"/>
<path d="M775.826 57.5002L809.958 -1.60767H741.694L775.826 57.5002Z" fill="white"/>
<path d="M775.826 57.5002L741.694 -1.60767L707.562 57.5002H775.826Z" fill="white"/>
<path d="M575.856 177.623L609.988 118.515H541.724L575.856 177.623Z" fill="white"/>
<path d="M575.856 177.623L541.724 118.515L507.592 177.623H575.856Z" fill="white"/>
</g>
<defs>
<clipPath id="clip0_736_6615">
<rect width="1057" height="1242" fill="white" transform="translate(0 -179)"/>
</clipPath>
</defs>
</svg>
