<svg width="56" height="57" viewBox="0 0 56 57" fill="none" xmlns="http://www.w3.org/2000/svg">
<g id="Twitter X 1" clip-path="url(#clip0_3_12275)">
<g id="Layer_1-2">
<path id="Vector" d="M41.4269 41.2716L30.9192 26.0063L29.7313 24.2798L22.2151 13.36L21.5921 12.4551H12.356L14.6086 15.7285L24.6026 30.2494L25.7905 31.974L33.8204 43.6411L34.4434 44.5453H43.6795L41.4269 41.2719V41.2716ZM35.5414 42.4556L27.1989 30.3346L26.0109 28.6092L16.3305 14.5443H20.4947L28.3234 25.9189L29.5114 27.6443L39.7058 42.4556H35.5416H35.5414Z" fill="#FFCC00"/>
<path id="Vector_2" d="M26.0112 28.6094L27.1991 30.3348L25.7908 31.9739L14.985 44.5449H12.3203L24.6028 30.2493L26.0112 28.6094Z" fill="#FFCC00"/>
<path id="Vector_3" d="M42.5677 12.4551L30.9195 26.0063L29.5112 27.6443L28.3232 25.9189L29.7316 24.2798L37.6219 15.096L39.903 12.4551H42.5677Z" fill="#FFCC00"/>
</g>
</g>
<defs>
<clipPath id="clip0_3_12275">
<rect width="56" height="56" fill="white" transform="translate(0 0.5)"/>
</clipPath>
</defs>
</svg>
